<svg width="250" height="51" viewBox="0 0 250 51" fill="none" xmlns="http://www.w3.org/2000/svg">
<path d="M57.0435 35.7096V11.8157H65.2324C67.9347 11.8157 69.9915 12.3572 71.4028 13.4403C72.8141 14.5234 73.5198 16.1371 73.5198 18.2815C73.5198 19.3755 73.2244 20.3601 72.6336 21.2354C72.0428 22.1106 71.1785 22.7889 70.0407 23.2703C71.3317 23.6204 72.3273 24.2823 73.0274 25.256C73.7386 26.2187 74.0941 27.3784 74.0941 28.7351C74.0941 30.9778 73.3721 32.701 71.9279 33.9044C70.4947 35.1079 68.4379 35.7096 65.7575 35.7096H57.0435ZM61.1954 24.9278V32.3946H65.8067C67.1087 32.3946 68.1261 32.0719 68.8591 31.4264C69.5921 30.7809 69.9586 29.8838 69.9586 28.7351C69.9586 26.2516 68.6896 24.9825 66.1514 24.9278H61.1954ZM61.1954 21.8754H65.2652C66.5562 21.8754 67.5627 21.5855 68.2848 21.0056C69.0178 20.4148 69.3843 19.5834 69.3843 18.5112C69.3843 17.3296 69.0451 16.4763 68.3668 15.9511C67.6994 15.426 66.6546 15.1634 65.2324 15.1634H61.1954V21.8754Z" fill="black"/>
<path d="M82.1025 35.7096H78.1147V17.9532H82.1025V35.7096ZM77.8686 13.3419C77.8686 12.7292 78.06 12.2205 78.443 11.8157C78.8368 11.4109 79.3948 11.2085 80.1168 11.2085C80.8389 11.2085 81.3969 11.4109 81.7907 11.8157C82.1846 12.2205 82.3815 12.7292 82.3815 13.3419C82.3815 13.9436 82.1846 14.4468 81.7907 14.8516C81.3969 15.2455 80.8389 15.4424 80.1168 15.4424C79.3948 15.4424 78.8368 15.2455 78.443 14.8516C78.06 14.4468 77.8686 13.9436 77.8686 13.3419Z" fill="black"/>
<path d="M90.7017 35.7096H86.7139V10.5028H90.7017V35.7096Z" fill="black"/>
<path d="M99.3009 35.7096H95.3131V10.5028H99.3009V35.7096Z" fill="black"/>
<path d="M122.358 32.608C121.494 33.7348 120.296 34.5882 118.764 35.168C117.232 35.7479 115.493 36.0378 113.545 36.0378C111.543 36.0378 109.771 35.5838 108.228 34.6757C106.686 33.7677 105.493 32.4712 104.651 30.7864C103.819 29.0906 103.387 27.1159 103.354 24.8621V22.9913C103.354 19.381 104.219 16.5638 105.947 14.5398C107.676 12.5049 110.088 11.4874 113.184 11.4874C115.843 11.4874 117.954 12.1439 119.519 13.4567C121.083 14.7696 122.024 16.6623 122.341 19.1348H118.272C117.812 16.2575 116.144 14.8188 113.266 14.8188C111.407 14.8188 109.99 15.4916 109.016 16.8373C108.053 18.1721 107.555 20.1359 107.523 22.7287V24.5667C107.523 27.1487 108.064 29.1563 109.147 30.5895C110.241 32.0117 111.757 32.7228 113.693 32.7228C115.816 32.7228 117.325 32.2415 118.222 31.2787V26.6017H113.299V23.4508H122.358V32.608Z" fill="black"/>
<path d="M134.354 36.0378C131.827 36.0378 129.776 35.2446 128.2 33.6582C126.636 32.0609 125.853 29.9385 125.853 27.2909V26.7986C125.853 25.0262 126.193 23.4453 126.871 22.0559C127.56 20.6555 128.523 19.567 129.759 18.7902C130.995 18.0134 132.374 17.625 133.895 17.625C136.312 17.625 138.178 18.3963 139.491 19.9389C140.814 21.4815 141.476 23.6642 141.476 26.4868V28.095H129.874C129.994 29.5611 130.481 30.7207 131.335 31.5741C132.199 32.4274 133.282 32.8541 134.584 32.8541C136.411 32.8541 137.899 32.1156 139.048 30.6387L141.197 32.69C140.486 33.7512 139.534 34.5772 138.342 35.168C137.16 35.7479 135.831 36.0378 134.354 36.0378ZM133.878 20.8251C132.784 20.8251 131.898 21.208 131.22 21.9739C130.552 22.7397 130.126 23.8064 129.94 25.1739H137.538V24.8785C137.45 23.5438 137.095 22.5373 136.471 21.859C135.847 21.1697 134.983 20.8251 133.878 20.8251Z" fill="black"/>
<path d="M148.287 17.9532L148.402 20.0046C149.714 18.4182 151.438 17.625 153.571 17.625C157.269 17.625 159.151 19.742 159.216 23.976V35.7096H155.228V24.2057C155.228 23.0788 154.982 22.2474 154.49 21.7113C154.009 21.1643 153.215 20.8908 152.11 20.8908C150.502 20.8908 149.304 21.6183 148.516 23.0734V35.7096H144.529V17.9532H148.287Z" fill="black"/>
<path d="M171.114 36.0378C168.587 36.0378 166.535 35.2446 164.96 33.6582C163.395 32.0609 162.613 29.9385 162.613 27.2909V26.7986C162.613 25.0262 162.952 23.4453 163.631 22.0559C164.32 20.6555 165.283 19.567 166.519 18.7902C167.755 18.0134 169.134 17.625 170.654 17.625C173.072 17.625 174.938 18.3963 176.25 19.9389C177.574 21.4815 178.236 23.6642 178.236 26.4868V28.095H166.634C166.754 29.5611 167.241 30.7207 168.094 31.5741C168.959 32.4274 170.042 32.8541 171.344 32.8541C173.171 32.8541 174.659 32.1156 175.807 30.6387L177.957 32.69C177.246 33.7512 176.294 34.5772 175.102 35.168C173.92 35.7479 172.591 36.0378 171.114 36.0378ZM170.638 20.8251C169.544 20.8251 168.658 21.208 167.98 21.9739C167.312 22.7397 166.885 23.8064 166.699 25.1739H174.298V24.8785C174.21 23.5438 173.855 22.5373 173.231 21.859C172.607 21.1697 171.743 20.8251 170.638 20.8251Z" fill="black"/>
<path d="M190.643 21.5964C190.117 21.5089 189.576 21.4651 189.018 21.4651C187.191 21.4651 185.96 22.1653 185.326 23.5657V35.7096H181.338V17.9532H185.145L185.244 19.9389C186.206 18.3963 187.541 17.625 189.248 17.625C189.817 17.625 190.287 17.7016 190.659 17.8548L190.643 21.5964Z" fill="black"/>
<path d="M203.279 35.7096C203.104 35.3704 202.951 34.8179 202.819 34.0521C201.55 35.3759 199.997 36.0378 198.159 36.0378C196.375 36.0378 194.92 35.5291 193.793 34.5116C192.667 33.4941 192.103 32.236 192.103 30.7372C192.103 28.8445 192.803 27.3948 194.204 26.3883C195.615 25.3709 197.628 24.8621 200.243 24.8621H202.688V23.697C202.688 22.778 202.431 22.045 201.917 21.4979C201.403 20.94 200.62 20.661 199.57 20.661C198.662 20.661 197.918 20.8908 197.338 21.3503C196.758 21.7988 196.468 22.3732 196.468 23.0734H192.481C192.481 22.0997 192.803 21.1916 193.449 20.3492C194.094 19.4958 194.97 18.8285 196.075 18.3471C197.19 17.8657 198.432 17.625 199.8 17.625C201.878 17.625 203.536 18.1502 204.772 19.2005C206.008 20.2398 206.643 21.7058 206.676 23.5985V31.6069C206.676 33.2042 206.9 34.4788 207.349 35.4306V35.7096H203.279ZM198.897 32.8377C199.685 32.8377 200.423 32.6463 201.113 32.2633C201.813 31.8804 202.338 31.3662 202.688 30.7207V27.373H200.538C199.061 27.373 197.951 27.6301 197.207 28.1443C196.463 28.6585 196.091 29.386 196.091 30.3269C196.091 31.0927 196.343 31.7054 196.846 32.1649C197.36 32.6134 198.044 32.8377 198.897 32.8377Z" fill="black"/>
<path d="M215.849 13.6372V17.9532H218.984V20.9072H215.849V30.8192C215.849 31.4975 215.981 31.9898 216.243 32.2962C216.517 32.5916 216.998 32.7393 217.687 32.7393C218.147 32.7393 218.612 32.6845 219.082 32.5751V35.6603C218.174 35.912 217.299 36.0378 216.457 36.0378C213.393 36.0378 211.862 34.3475 211.862 30.9669V20.9072H208.941V17.9532H211.862V13.6372H215.849Z" fill="black"/>
<path d="M220.805 26.6673C220.805 24.9278 221.15 23.3633 221.839 21.9739C222.529 20.5735 223.497 19.5013 224.744 18.7574C225.991 18.0025 227.424 17.625 229.044 17.625C231.44 17.625 233.381 18.3963 234.869 19.9389C236.368 21.4815 237.178 23.5274 237.298 26.0765L237.315 27.0119C237.315 28.7624 236.975 30.3269 236.297 31.7054C235.63 33.0839 234.667 34.1506 233.409 34.9055C232.162 35.6603 230.717 36.0378 229.076 36.0378C226.571 36.0378 224.563 35.2063 223.054 33.5434C221.555 31.8695 220.805 29.6431 220.805 26.8642V26.6673ZM224.793 27.0119C224.793 28.839 225.171 30.2722 225.926 31.3115C226.68 32.3399 227.731 32.8541 229.076 32.8541C230.422 32.8541 231.467 32.329 232.211 31.2787C232.966 30.2284 233.343 28.6913 233.343 26.6673C233.343 24.8731 232.955 23.4508 232.178 22.4005C231.412 21.3503 230.367 20.8251 229.044 20.8251C227.742 20.8251 226.708 21.3448 225.942 22.3841C225.176 23.4125 224.793 24.9551 224.793 27.0119Z" fill="black"/>
<path d="M249.984 21.5964C249.458 21.5089 248.917 21.4651 248.359 21.4651C246.532 21.4651 245.301 22.1653 244.667 23.5657V35.7096H240.679V17.9532H244.486L244.584 19.9389C245.547 18.3963 246.882 17.625 248.589 17.625C249.158 17.625 249.628 17.7016 250 17.8548L249.984 21.5964Z" fill="black"/>
<path fill-rule="evenodd" clip-rule="evenodd" d="M16.8045 4.20114H42.0113C44.3219 4.20114 46.2124 6.09165 46.2124 8.40227V33.609C46.2124 35.9197 44.3219 37.8102 42.0113 37.8102H16.8045C14.4939 37.8102 12.6034 35.9197 12.6034 33.609V8.40227C12.6034 6.09165 14.4939 4.20114 16.8045 4.20114ZM4.20113 12.6034H8.40226V42.0113H37.8102V46.2124H8.40226C6.09163 46.2124 4.20113 44.3219 4.20113 42.0113V12.6034ZM42.0113 33.609H16.8045V8.40227H42.0113V33.609ZM37.8102 18.9051H21.0056V23.1062H37.8102V18.9051ZM21.0056 25.2068H29.4079V29.4079H21.0056V25.2068ZM37.8102 12.6034H21.0056V16.8045H37.8102V12.6034Z" fill="#4BBF73"/>
</svg>
