<svg width="25" height="25" viewBox="0 0 25 25" fill="none" xmlns="http://www.w3.org/2000/svg">
<path opacity="0.3" fill-rule="evenodd" clip-rule="evenodd" d="M12.5833 24.5833C19.2107 24.5833 24.5833 19.2108 24.5833 12.5833C24.5833 5.95593 19.2107 0.583344 12.5833 0.583344C5.9559 0.583344 0.583313 5.95593 0.583313 12.5833C0.583313 19.2108 5.9559 24.5833 12.5833 24.5833Z" fill="#C7C7C7"/>
<path fill-rule="evenodd" clip-rule="evenodd" d="M7.39343 7.6762C7.00291 8.06672 7.00291 8.69989 7.39343 9.09041L10.9289 12.6259L7.39336 16.1615C7.00283 16.552 7.00283 17.1852 7.39336 17.5757L7.6762 17.8586C8.06672 18.2491 8.69989 18.2491 9.09041 17.8586L12.626 14.323L16.1616 17.8585C16.5521 18.2491 17.1852 18.2491 17.5758 17.8585L17.8586 17.5757C18.2491 17.1852 18.2491 16.552 17.8586 16.1615L14.3231 12.6259L17.8585 9.09044C18.2491 8.69992 18.2491 8.06675 17.8585 7.67623L17.5757 7.39338C17.1852 7.00286 16.552 7.00286 16.1615 7.39338L12.626 10.9289L9.09049 7.39336C8.69996 7.00283 8.0668 7.00283 7.67627 7.39336L7.39343 7.6762Z" fill="black"/>
</svg>
