<svg width="15" height="27" viewBox="0 0 15 27" fill="none" xmlns="http://www.w3.org/2000/svg">
<path fill-rule="evenodd" clip-rule="evenodd" d="M11.9484 8.56233C11.5536 8.05989 11.0377 7.66063 10.4007 7.36454C9.76368 7.06846 9.14909 6.92042 8.55692 6.92042C8.25186 6.92042 7.94232 6.94733 7.62829 7.00117C7.31427 7.055 7.03164 7.15818 6.78042 7.31071C6.5292 7.46324 6.31835 7.66062 6.14788 7.90288C5.97741 8.14513 5.89217 8.45467 5.89217 8.8315C5.89217 9.1545 5.95946 9.42367 6.09404 9.639C6.22863 9.85434 6.42602 10.0428 6.68621 10.2043C6.94641 10.3658 7.25595 10.5138 7.61484 10.6484C7.97373 10.783 8.37747 10.922 8.82609 11.0656C9.47209 11.2809 10.145 11.5187 10.8448 11.7789C11.5447 12.0391 12.1817 12.3845 12.7559 12.8152C13.3301 13.2458 13.8057 13.7797 14.1825 14.4167C14.5593 15.0537 14.7478 15.8478 14.7478 16.7988C14.7478 17.8935 14.5459 18.84 14.1421 19.6385C13.7384 20.4371 13.1956 21.0965 12.5137 21.6169C11.8318 22.1373 11.0512 22.5231 10.1719 22.7743C9.29264 23.0256 8.38645 23.1512 7.45334 23.1512C6.08955 23.1512 4.77065 22.9134 3.49659 22.4379C2.22252 21.9623 1.16381 21.2849 0.320419 20.4057L3.33509 17.3372C3.80164 17.9114 4.41623 18.3914 5.17888 18.7772C5.94152 19.163 6.69967 19.3559 7.45334 19.3559C7.79428 19.3559 8.12625 19.32 8.44925 19.2483C8.77225 19.1765 9.05488 19.0598 9.29713 18.8983C9.53938 18.7368 9.73228 18.5215 9.87584 18.2523C10.0194 17.9832 10.0912 17.6602 10.0912 17.2833C10.0912 16.9244 10.0014 16.6194 9.822 16.3682C9.64256 16.1169 9.38685 15.8882 9.05488 15.6818C8.7229 15.4754 8.31019 15.287 7.81671 15.1165C7.32324 14.9461 6.76248 14.7621 6.13442 14.5648C5.52431 14.3674 4.92766 14.1341 4.34446 13.8649C3.76126 13.5957 3.24088 13.2503 2.78329 12.8286C2.32571 12.4069 1.95785 11.8955 1.67971 11.2944C1.40157 10.6932 1.2625 9.96201 1.2625 9.10067C1.2625 8.04194 1.47783 7.13575 1.9085 6.38208C2.33917 5.62841 2.90442 5.00934 3.60425 4.52483C4.30409 4.04033 5.09364 3.68593 5.97292 3.46163C6.8522 3.23732 7.74044 3.12517 8.63767 3.12517C9.71434 3.12517 10.8134 3.32255 11.935 3.71733C13.0565 4.11211 14.0389 4.6953 14.8823 5.46692L11.9484 8.56233Z" fill="white"/>
<rect opacity="0.3" x="6.29166" width="2.83333" height="5.66667" rx="1" fill="white"/>
<rect opacity="0.3" x="6.29166" y="19.8333" width="2.83333" height="7.08333" rx="1" fill="white"/>
</svg>
