<svg width="100" height="100" viewBox="0 0 100 100" fill="none" xmlns="http://www.w3.org/2000/svg">
<path opacity="0.3" fill-rule="evenodd" clip-rule="evenodd" d="M50 91.6667C73.0119 91.6667 91.6667 73.0119 91.6667 50C91.6667 26.9881 73.0119 8.33334 50 8.33334C26.9881 8.33334 8.33334 26.9881 8.33334 50C8.33334 73.0119 26.9881 91.6667 50 91.6667Z" fill="black"/>
<path opacity="0.3" fill-rule="evenodd" clip-rule="evenodd" d="M50 45.8333C45.3976 45.8333 41.6667 42.1024 41.6667 37.5C41.6667 32.8976 45.3976 29.1667 50 29.1667C54.6024 29.1667 58.3333 32.8976 58.3333 37.5C58.3333 42.1024 54.6024 45.8333 50 45.8333ZM29.1682 68.7479C30.0654 56.3191 39.0322 50 49.9614 50C61.0445 50 70.1502 55.9719 70.8285 68.75C70.8555 69.2591 70.8285 70.8333 69.0896 70.8333H30.8507C30.2702 70.8333 29.1193 69.425 29.1682 68.7479Z" fill="black"/>
</svg>
